<svg width="71" height="78" viewBox="0 0 71 78" fill="none" xmlns="http://www.w3.org/2000/svg">
<path d="M64.3331 42.9382C66.9472 39.1805 68.5253 34.8006 68.9086 30.2391C69.2918 25.6777 68.4667 21.0958 66.5163 16.9546C64.5659 12.8134 61.559 9.25914 57.7982 6.64946C54.0375 4.03979 49.6557 2.46684 45.0938 2.08895C40.5319 1.71106 35.951 2.54157 31.8121 4.49687C27.6732 6.45217 24.1225 9.46326 21.5172 13.2271C18.912 16.9909 17.3442 21.3746 16.9717 25.9369C16.5992 30.4992 17.4351 35.0791 19.3952 39.2157" stroke="white" stroke-width="3" stroke-linecap="round" stroke-linejoin="round"/>
<path d="M42.9474 16.8809C38.834 16.8809 35.5024 19.3824 35.5024 22.4647C35.5024 25.5469 38.834 28.0484 42.9474 28.0484C47.0607 28.0484 50.3923 30.5499 50.3923 33.6321C50.3923 36.7143 47.0607 39.2159 42.9474 39.2159M42.9474 16.8809C46.1859 16.8809 48.948 18.4332 49.968 20.6034M42.9474 16.8809V13.1584M42.9474 39.2159C39.7088 39.2159 36.9467 37.6636 35.9267 35.4934M42.9474 39.2159V42.9383M2 46.6608H10.9154C12.0098 46.6608 13.0893 46.9065 14.0683 47.383L21.6696 51.0608C22.6486 51.5336 23.7282 51.7792 24.8263 51.7792H28.7051C32.4574 51.7792 35.5024 54.7237 35.5024 58.3569C35.5024 58.5058 35.4019 58.6323 35.2567 58.6733L25.7979 61.2902C24.1006 61.7591 22.2908 61.595 20.7055 60.8286L12.5793 56.8977M35.5024 55.967L52.5998 50.7146C54.0882 50.2579 55.6829 50.283 57.1563 50.7864C58.6296 51.2897 59.9063 52.2456 60.8041 53.5176C62.1777 55.4161 61.6193 58.141 59.6166 59.2949L31.6422 75.4394C30.7674 75.9455 29.7988 76.2682 28.7953 76.3879C27.7919 76.5076 26.7745 76.4217 25.8053 76.1355L2 69.0702" stroke="white" stroke-width="3" stroke-linecap="round" stroke-linejoin="round"/>
</svg>
