<svg width="26" height="25" viewBox="0 0 26 25" fill="none" xmlns="http://www.w3.org/2000/svg">
<path d="M23.9375 2.33881L17.682 2.33883V0.781433C17.682 0.349691 17.3324 0 16.9008 0C16.4691 0 16.1195 0.349691 16.1195 0.781433V2.33844H9.86953V0.781433C9.86953 0.349691 9.51992 0 9.08828 0C8.65664 0 8.30703 0.349691 8.30703 0.781433V2.33844H2.0625C1.19961 2.33844 0.5 3.03821 0.5 3.9013V23.4371C0.5 24.3002 1.19961 25 2.0625 25H23.9375C24.8004 25 25.5 24.3002 25.5 23.4371V3.9013C25.5 3.03858 24.8004 2.33881 23.9375 2.33881ZM23.9375 23.4371H2.0625V3.9013H8.30703V4.6886C8.30703 5.12032 8.65664 5.47003 9.08828 5.47003C9.51992 5.47003 9.86953 5.12032 9.86953 4.6886V3.9017H16.1195V4.68899C16.1195 5.12073 16.4691 5.47042 16.9008 5.47042C17.3324 5.47042 17.682 5.12073 17.682 4.68899V3.9017H23.9375V23.4371ZM18.4688 12.4974H20.0312C20.4625 12.4974 20.8125 12.1474 20.8125 11.716V10.1531C20.8125 9.72179 20.4625 9.3717 20.0312 9.3717H18.4688C18.0375 9.3717 17.6875 9.72179 17.6875 10.1531V11.716C17.6875 12.1474 18.0375 12.4974 18.4688 12.4974ZM18.4688 18.7485H20.0312C20.4625 18.7485 20.8125 18.3988 20.8125 17.9671V16.4042C20.8125 15.9729 20.4625 15.6228 20.0312 15.6228H18.4688C18.0375 15.6228 17.6875 15.9729 17.6875 16.4042V17.9671C17.6875 18.3992 18.0375 18.7485 18.4688 18.7485ZM13.7812 15.6228H12.2188C11.7875 15.6228 11.4375 15.9729 11.4375 16.4042V17.9671C11.4375 18.3988 11.7875 18.7485 12.2188 18.7485H13.7812C14.2125 18.7485 14.5625 18.3988 14.5625 17.9671V16.4042C14.5625 15.9733 14.2125 15.6228 13.7812 15.6228ZM13.7812 9.3717H12.2188C11.7875 9.3717 11.4375 9.72179 11.4375 10.1531V11.716C11.4375 12.1474 11.7875 12.4974 12.2188 12.4974H13.7812C14.2125 12.4974 14.5625 12.1474 14.5625 11.716V10.1531C14.5625 9.72139 14.2125 9.3717 13.7812 9.3717ZM7.53125 9.3717H5.96875C5.5375 9.3717 5.1875 9.72179 5.1875 10.1531V11.716C5.1875 12.1474 5.5375 12.4974 5.96875 12.4974H7.53125C7.9625 12.4974 8.3125 12.1474 8.3125 11.716V10.1531C8.3125 9.72139 7.9625 9.3717 7.53125 9.3717ZM7.53125 15.6228H5.96875C5.5375 15.6228 5.1875 15.9729 5.1875 16.4042V17.9671C5.1875 18.3988 5.5375 18.7485 5.96875 18.7485H7.53125C7.9625 18.7485 8.3125 18.3988 8.3125 17.9671V16.4042C8.3125 15.9733 7.9625 15.6228 7.53125 15.6228Z" fill="#6D28D9"/>
</svg>
