<svg data-v-939c7028="" width="30" height="20" viewBox="0 0 21 26" fill="none" xmlns="http://www.w3.org/2000/svg"><path d="M15.237 0H3.98686C1.91577 0 0.236816 1.67895 0.236816 3.75004V21.2502C0.236816 23.3213 1.91577 25.0003 3.98686 25.0003H15.237C17.3081 25.0003 18.987 23.3213 18.987 21.2502V3.75004C18.987 1.67895 17.3081 0 15.237 0Z" fill="#E5F5FD"></path><path d="M17.2627 0.000976562H0.595007C0.437404 0.00163462 0.286444 0.0645338 0.175001 0.175977C0.0635576 0.28742 0.000658059 0.438381 0 0.595984V24.4063C0.000658059 24.5639 0.0635576 24.7148 0.175001 24.8263C0.286444 24.9377 0.437404 25.0006 0.595007 25.0013H17.2627C18.052 25.0009 18.8088 24.6873 19.3669 24.1292C19.925 23.5711 20.2387 22.8142 20.239 22.025V2.97726C20.2387 2.188 19.925 1.43117 19.3669 0.873076C18.8088 0.314986 18.052 0.00130784 17.2627 0.000976562ZM19.049 22.025C19.0477 22.4983 18.859 22.9519 18.5243 23.2866C18.1896 23.6213 17.736 23.8099 17.2627 23.8113H1.19001V1.19099H17.2627C17.736 1.19231 18.1896 1.38093 18.5243 1.71563C18.859 2.05034 19.0477 2.50392 19.049 2.97726V22.025Z" fill="#1C3C6B"></path><path d="M10.1191 2.38086C8.70648 2.38086 7.32553 2.79976 6.15094 3.5846C4.97635 4.36944 4.06087 5.48496 3.52026 6.79009C2.97966 8.09523 2.83821 9.53137 3.11381 10.9169C3.38941 12.3024 4.06967 13.5751 5.06858 14.574C6.06749 15.5729 7.34018 16.2532 8.7257 16.5288C10.1112 16.8044 11.5474 16.6629 12.8525 16.1223C14.1576 15.5817 15.2732 14.6662 16.058 13.4916C16.8428 12.3171 17.2617 10.9361 17.2617 9.52344C17.2601 7.62962 16.507 5.81384 15.1679 4.4747C13.8288 3.13557 12.013 2.38251 10.1191 2.38086ZM10.1191 3.57087C10.8092 3.57087 11.5542 4.53463 12.0179 6.0709C10.7576 5.90425 9.48074 5.90425 8.22038 6.0709C8.68538 4.53588 9.42914 3.57087 10.1191 3.57087ZM7.77412 4.05338C7.37631 4.75766 7.08164 5.5154 6.89911 6.3034C6.10997 6.48224 5.35171 6.77712 4.64909 7.17842C5.25383 5.77613 6.37184 4.65812 7.77412 4.05338ZM4.16658 9.52344C4.16658 8.83343 5.13034 8.08843 6.66661 7.62467C6.49996 8.88503 6.49996 10.1619 6.66661 11.4222C5.12534 10.9585 4.16658 10.2134 4.16658 9.52344ZM4.64909 11.8685C5.35337 12.2663 6.1111 12.561 6.89911 12.7435C7.07795 13.5326 7.37282 14.2909 7.77412 14.9935C6.37176 14.3889 5.25372 13.2708 4.64909 11.8685ZM10.1191 15.476C9.42914 15.476 8.68413 14.5122 8.22038 12.976C9.48074 13.1426 10.7576 13.1426 12.0179 12.976C11.5542 14.506 10.8104 15.476 10.1191 15.476ZM10.1191 11.9047C9.38319 11.9041 8.64856 11.8422 7.92287 11.7197C7.67689 10.2659 7.67689 8.78102 7.92287 7.32717C9.37673 7.08118 10.8616 7.08118 12.3154 7.32717C12.5614 8.78102 12.5614 10.2659 12.3154 11.7197C11.5897 11.8422 10.8551 11.9041 10.1191 11.9047ZM12.4642 14.9935C12.862 14.2892 13.1567 13.5315 13.3392 12.7435C14.1283 12.5646 14.8866 12.2698 15.5892 11.8685C14.9846 13.2708 13.8665 14.3889 12.4642 14.9935ZM16.0717 9.52344C16.0717 10.2134 15.108 10.9585 13.5717 11.4222C13.7384 10.1619 13.7384 8.88503 13.5717 7.62467C15.1017 8.08968 16.0717 8.83343 16.0717 9.52344ZM13.3342 6.30965C13.1554 5.52051 12.8605 4.76226 12.4592 4.05963C13.8615 4.66438 14.9795 5.78238 15.5842 7.18467C14.8799 6.78686 14.1222 6.49218 13.3342 6.30965Z" fill="#1C3C6B"></path><path d="M16.0724 19.0479H4.16727C4.00947 19.0479 3.85813 19.1105 3.74654 19.2221C3.63495 19.3337 3.57227 19.4851 3.57227 19.6429C3.57227 19.8007 3.63495 19.952 3.74654 20.0636C3.85813 20.1752 4.00947 20.2379 4.16727 20.2379H16.0724C16.2302 20.2379 16.3816 20.1752 16.4931 20.0636C16.6047 19.952 16.6674 19.8007 16.6674 19.6429C16.6674 19.4851 16.6047 19.3337 16.4931 19.2221C16.3816 19.1105 16.2302 19.0479 16.0724 19.0479Z" fill="#1C3C6B"></path><path d="M16.0724 21.4297H4.16727C4.00947 21.4297 3.85813 21.4924 3.74654 21.604C3.63495 21.7155 3.57227 21.8669 3.57227 22.0247C3.57227 22.1825 3.63495 22.3338 3.74654 22.4454C3.85813 22.557 4.00947 22.6197 4.16727 22.6197H16.0724C16.2302 22.6197 16.3816 22.557 16.4931 22.4454C16.6047 22.3338 16.6674 22.1825 16.6674 22.0247C16.6674 21.8669 16.6047 21.7155 16.4931 21.604C16.3816 21.4924 16.2302 21.4297 16.0724 21.4297Z" fill="#1C3C6B"></path></svg>